<?xml version="1.0" standalone="no"?><!DOCTYPE svg PUBLIC "-//W3C//DTD SVG 1.1//EN" "http://www.w3.org/Graphics/SVG/1.1/DTD/svg11.dtd"><svg class="icon" height="512" viewBox="0 0 1024 1024" version="1.1" xmlns="http://www.w3.org/2000/svg"><path d="M810.666667 853.333333H170.666667a85.333333 85.333333 0 0 1-85.333334-85.333333V256c0-47.36 37.973333-85.333333 85.333334-85.333333h256l85.333333 85.333333h298.666667c46.805333 0 85.333333 38.528 85.333333 85.333333H170.666667v426.666667l91.306666-341.333333h728.32l-97.28 362.666666c-9.813333 37.12-43.093333 64-82.346666 64z" fill="#F8BBD0" /><path d="M996.693333 448.256c-16.64-65.152-124.672-86.613333-226.944-50.261333-60.842667 21.632-126.72 55.552-174.08 99.84-56.32 52.693333-65.28 98.56-61.610666 117.717333 13.056 67.584 105.685333 111.786667 143.786666 144.554667v0.213333c-11.264 5.546667-93.44 47.104-112.64 89.6-20.309333 44.885333 3.2 77.056 18.773334 81.408 48.256 13.44 97.792-10.709333 124.416-50.432 25.685333-38.272 23.509333-87.722667 12.373333-112.341333 15.36-4.053333 33.322667-5.888 56.149333-3.242667 64.341333 7.552 76.970667 47.701333 74.581334 64.554667-2.432 16.810667-15.914667 26.026667-20.48 28.842666-4.48 2.773333-5.845333 3.754667-5.504 5.845334 0.554667 2.986667 2.645333 2.901333 6.485333 2.261333 5.333333-0.896 33.792-13.696 35.029333-44.714667 1.578667-39.424-36.224-83.541333-103.082666-82.346666-27.562667 0.426667-44.885333 3.072-57.386667 7.722666-0.938667-1.024-1.877333-2.133333-2.858667-3.114666-41.344-44.117333-117.76-75.306667-114.517333-134.656 1.152-21.546667 8.661333-78.293333 146.858667-147.2 113.194667-56.405333 203.818667-40.832 219.52-6.442667 22.357333 49.152-48.469333 140.501333-166.016 153.642667-44.8 5.034667-68.394667-12.330667-74.24-18.773334-6.186667-6.826667-7.082667-7.125333-9.386667-5.845333-3.754667 2.090667-1.408 8.106667 0 11.690667 3.498667 9.130667 17.92 25.344 42.453333 33.365333 21.589333 7.082667 74.197333 11.008 137.813334-13.610667 71.210667-27.562667 126.805333-104.234667 110.506666-168.277333z m-303.061333 332.074667a93.866667 93.866667 0 0 1-2.773333 60.288 102.613333 102.613333 0 0 1-19.328 30.037333c-21.333333 23.296-51.114667 32.085333-63.872 24.704-13.781333-8.021333-6.869333-40.789333 17.834666-66.901333 26.581333-28.16 64.853333-46.208 64.853334-46.208l-0.085334-0.085334 3.370667-1.834666z" fill="#EC407A" /></svg>